<?xml version="1.0" encoding="utf-8"?>
<!-- Generator: Adobe Illustrator 22.1.0, SVG Export Plug-In . SVG Version: 6.00 Build 0)  -->
<svg version="1.1" id="Layer_1" xmlns="http://www.w3.org/2000/svg" xmlns:xlink="http://www.w3.org/1999/xlink" x="0px" y="0px"
	 viewBox="0 0 733.9 76.7" style="enable-background:new 0 0 733.9 76.7;" xml:space="preserve">
<style type="text/css">
	.st0{fill:#fff;}
	.st1{fill:#fff;}
	.st2{fill:none;stroke:#fff;stroke-width:0.25;stroke-miterlimit:10;}
</style>
<g>
	<path class="st0" d="M320.1,17c0-9,6.2-16.9,25.2-16.9c19.1,0,25.3,7.9,25.3,16.9v42.7c0,9-6.2,16.9-25.3,16.9
		c-19,0-25.2-7.9-25.2-16.9V17z M359.7,18.8c0-5.9-4.4-9.6-14.4-9.6c-9.9,0-14.3,3.6-14.3,9.6V58c0,5.9,4.4,9.6,14.3,9.6
		c10,0,14.4-3.6,14.4-9.6V18.8z"/>
	<path class="st0" d="M405.3,46.2v27.9c0,1.6-0.4,2.2-2,2.2h-6.8c-1.4,0-2-0.7-2-2.2V2.3c0-1.6,0.6-2.2,2-2.2h22.5
		c19.1,0,25.2,8.1,25.2,17.3V29c0,6.8-3.4,13-13,15.7l13.3,29.4c0.6,1.3-0.4,2.2-2,2.2h-6.7c-1.5,0-1.8-0.9-2.4-2.2l-12.5-27.9h-1.9
		H405.3z M405.3,9.4v27.5h13.7c10,0,14.4-3.6,14.4-9.8v-8c0-6.1-4.4-9.8-14.4-9.8H405.3z"/>
	<path class="st0" d="M518.9,74.2c0.8,1,0.4,2.1-1,2.1h-8.8c-1.5,0-2.4-1-3.2-2.1l-24.8-31.7h-2.8v31.7c0,1.5-0.6,2.1-2.1,2.1h-6.8
		c-1.4,0-2-0.7-2-2.1v-72c0-1.5,0.6-2.1,2-2.1h6.8c1.6,0,2.1,0.7,2.1,2.1v32.1h2.7l23.2-32.1c0.9-1.1,2-2.1,3.4-2.1h7.3
		c1.4,0,1.8,1,1,2.1l-25.7,35.4L518.9,74.2z"/>
	<g>
		<path class="st0" d="M552.7,54.3h-1c-0.5,0-0.8,0.3-0.8,0.8v8.3h-8.8v-8.3c0-0.5-0.3-0.8-0.8-0.8h-0.9c-0.5,0-0.8,0.3-0.8,0.8
			v20.3c0,0.5,0.3,0.8,0.8,0.8h0.9c0.5,0,0.8-0.3,0.8-0.8v-9.7h8.8v9.7c0,0.5,0.3,0.8,0.8,0.8h1c0.5,0,0.8-0.3,0.8-0.8V55.1
			C553.5,54.6,553.2,54.3,552.7,54.3z"/>
		<path class="st0" d="M568.8,55c-0.1-0.4-0.4-0.7-0.9-0.7h-0.5h-0.1h-0.3c-0.5,0-0.8,0.3-0.9,0.7l-6.3,20.3c-0.1,0.3,0,0.6,0.1,0.7
			c0.1,0.1,0.3,0.3,0.6,0.3h0.9c0.3,0,0.7-0.1,0.9-0.7l1.7-5.7h6.8l1.8,5.7c0.2,0.6,0.6,0.7,0.9,0.7h1c0.4,0,0.6-0.2,0.6-0.3
			c0.1-0.1,0.2-0.3,0.1-0.7L568.8,55z M564.6,67.7l2.4-7.8c0.1-0.3,0.2-0.7,0.3-1.2c0.1,0.4,0.2,0.9,0.3,1.2l2.4,7.7H564.6z"/>
		<path class="st0" d="M594.3,54.3h-0.8c-0.5,0-0.8,0.3-0.8,0.8v15.5c0,0,0-0.1-0.1-0.1l-9-15.9c-0.2-0.2-0.4-0.3-0.7-0.3h-0.8
			c-0.5,0-0.8,0.3-0.8,0.8v20.3c0,0.5,0.3,0.8,0.8,0.8h0.8c0.5,0,0.8-0.3,0.8-0.8V59.9c0,0.1,0.1,0.2,0.1,0.2l8.8,15.7
			c0.1,0.2,0.3,0.4,0.7,0.4h0.8c0.5,0,0.8-0.3,0.8-0.8V55.1C595.1,54.6,594.8,54.3,594.3,54.3z"/>
		<path class="st0" d="M628.7,54.2h-1c-0.5,0-0.8,0.3-0.8,0.8v8.3h-8.8v-8.3c0-0.5-0.3-0.8-0.8-0.8h-0.9c-0.5,0-0.8,0.3-0.8,0.8
			v20.3c0,0.5,0.3,0.8,0.8,0.8h0.9c0.5,0,0.8-0.3,0.8-0.8v-9.7h8.8v9.7c0,0.5,0.3,0.8,0.8,0.8h1c0.5,0,0.8-0.3,0.8-0.8V55.1
			C629.5,54.5,629.2,54.2,628.7,54.2z"/>
		<path class="st0" d="M643.8,55.2c-0.1-0.4-0.4-0.7-0.9-0.7h-0.5h-0.1h-0.3c-0.5,0-0.8,0.3-0.9,0.7l-6.3,20.3
			c-0.1,0.3,0,0.6,0.1,0.7c0.1,0.1,0.3,0.3,0.6,0.3h0.9c0.3,0,0.7-0.1,0.9-0.7l1.7-5.7h6.8l1.8,5.7c0.2,0.6,0.6,0.7,0.9,0.7h1
			c0.4,0,0.6-0.2,0.6-0.3c0.1-0.1,0.2-0.3,0.1-0.7L643.8,55.2z M639.6,67.8l2.4-7.8c0.1-0.3,0.2-0.7,0.3-1.2
			c0.1,0.4,0.2,0.9,0.3,1.2l2.4,7.7H639.6z"/>
		<path class="st0" d="M666.8,54.1h-0.9c-0.5,0-0.8,0.3-0.8,0.8v16.3c0,1.6-0.6,2.7-3.6,2.7c-3,0-3.6-1.1-3.6-2.7v-1
			c0-0.5-0.3-0.8-0.8-0.8h-0.9c-0.5,0-0.8,0.3-0.8,0.8v1.3c0,3.2,2,4.8,6.1,4.8c4.1,0,6.1-1.6,6.1-4.8V54.9
			C667.6,54.4,667.3,54.1,666.8,54.1z"/>
		<path class="st0" d="M674.5,54.4h-0.9c-0.5,0-0.8,0.3-0.8,0.8v20.3c0,0.5,0.3,0.8,0.8,0.8h0.9c0.5,0,0.8-0.3,0.8-0.8V55.3
			C675.3,54.8,675,54.4,674.5,54.4z"/>
		<path class="st0" d="M695,54.4h-0.9c-0.5,0-0.7,0.4-0.9,0.6l-5.1,9.5c0,0,0,0.1,0,0.1c0,0,0-0.1,0-0.1l-5-9.5
			c-0.1-0.3-0.3-0.6-0.9-0.6h-1c-0.4,0-0.6,0.2-0.7,0.3c-0.1,0.1-0.2,0.4,0,0.7l6.3,12v8.1c0,0.5,0.3,0.8,0.8,0.8h0.9
			c0.5,0,0.8-0.3,0.8-0.8v-8.2l6.3-11.8c0.2-0.3,0.1-0.6,0-0.7C695.6,54.6,695.4,54.4,695,54.4z"/>
		<path class="st0" d="M712.7,74.1h-9.2v-8h8.3c0.5,0,0.8-0.3,0.8-0.8v-0.7c0-0.5-0.3-0.8-0.8-0.8h-8.3v-7h8.8
			c0.5,0,0.8-0.3,0.8-0.8v-0.7c0-0.5-0.3-0.8-0.8-0.8h-10.6c-0.5,0-0.8,0.3-0.8,0.8v20.3c0,0.5,0.3,0.8,0.8,0.8h11
			c0.5,0,0.8-0.3,0.8-0.8v-0.7C713.6,74.4,713.3,74.1,712.7,74.1z"/>
		<path class="st0" d="M733.7,54.7c-0.1-0.2-0.3-0.3-0.6-0.3h-0.9c-0.5,0-0.8,0.2-0.9,0.7l-4.9,15.7c-0.1,0.3-0.2,0.6-0.3,0.9
			c-0.1-0.4-0.2-0.7-0.3-1l-4.8-15.6c-0.2-0.6-0.6-0.7-0.9-0.7h-1c-0.3,0-0.5,0.1-0.6,0.3c-0.1,0.1-0.2,0.3-0.1,0.7l6.3,20.3
			c0.1,0.4,0.4,0.7,0.9,0.7h1c0.5,0,0.8-0.3,0.9-0.7l6.3-20.3C733.9,55.1,733.8,54.8,733.7,54.7z"/>
	</g>
	<path class="st1" d="M57.5,73.2c0,2.4-0.8,3.4-3.1,3.4h-11c-1.7,0-2.4-0.4-3-1.6l-18-29.9c-1.9-3-3.6-7-4.8-10.1v38.2
		c0,2.4-0.8,3.4-3.1,3.4h-11c-2.4,0-3.3-1-3.3-3.4V3.5c0-2.4,0.9-3.4,3.3-3.4h11c1.5,0,2.4,0.5,2.8,1.3l19,31.8
		c1.3,2.4,2.8,5.7,3.9,8.4V3.5c0-2.4,0.9-3.4,3.3-3.4h11c2.4,0,3.1,1,3.1,3.4V73.2z"/>
	<path class="st1" d="M81.3,76.5c-2.4,0-3.3-1-3.3-3.4V3.5c0-2.4,0.9-3.4,3.3-3.4h38.5c2.4,0,3.4,0.8,3.4,3.1V12
		c0,2.4-1,3.3-3.4,3.3H96.6v14.6H118c2.4,0,3.4,0.8,3.4,3.1v8.2c0,2.4-1,3.3-3.4,3.3H96.6v16.9h24.3c2.4,0,3.4,0.8,3.4,3.1v8.8
		c0,2.4-1,3.3-3.4,3.3H81.3z"/>
	<path class="st1" d="M194.2,0.1c2.4,0,3.4,0.8,3.4,3.1V12c0,2.4-1,3.3-3.4,3.3h-14.4v57.9c0,2.4-0.8,3.4-3.1,3.4h-12.1
		c-2.4,0-3.3-1-3.3-3.4V15.3h-14.4c-2.4,0-3.4-0.9-3.4-3.3V3.2c0-2.4,1-3.1,3.4-3.1H194.2z"/>
	<g>
		<path class="st1" d="M545.4,40.2c0,0.9-0.2,1.2-1.1,1.2h-3.7c-0.8,0-1.1-0.4-1.1-1.2V1.3c0-0.9,0.3-1.2,1.1-1.2h3.7
			c0.9,0,1.1,0.4,1.1,1.2V40.2z"/>
		<path class="st1" d="M594.7,40.2c0,0.8-0.2,1.2-1.1,1.2h-3.3c-0.6,0-0.9-0.2-1.1-0.5l-14.3-25c-1.3-2.2-2.1-4.1-2.2-4.4v28.8
			c0,0.8-0.3,1.2-1.1,1.2h-3.4c-0.8,0-1.1-0.4-1.1-1.2v-39c0-0.8,0.3-1.2,1.1-1.2h3.4c0.5,0,0.8,0.2,1,0.5l14.6,25.6
			c0.9,1.5,1.9,3.9,1.9,3.9V1.2c0-0.8,0.4-1.2,1.2-1.2h3.3c0.9,0,1.1,0.4,1.1,1.2V40.2z"/>
		<path class="st1" d="M641.5,20.7c0.8,0,1.2,0.3,1.2,1.1v10.5c0,4.9-3,9.2-13.4,9.2c-10.4,0-13.4-4.3-13.4-9.2V9.2
			c0-4.9,3-9.2,13.4-9.2c10.5,0,13.4,4.3,13.4,9.2v2.6c0,0.8-0.3,1.1-1.1,1.1h-3.5c-0.9,0-1.2-0.4-1.2-1.1v-1.7
			c0-3.2-2.1-5.2-7.6-5.2c-5.5,0-7.5,2-7.5,5.2v21.2c0,3.2,2.1,5.2,7.5,5.2c5.4,0,7.6-1.9,7.6-5.1v-5.7h-7.2c-0.8,0-1.2-0.3-1.2-1.1
			v-2.7c0-0.8,0.4-1.1,1.2-1.1H641.5z"/>
		<path class="st1" d="M683.3,0.1c0.8,0,1.2,0.4,1.5,1.2l11.8,39c0.2,0.7-0.1,1.2-0.9,1.2h-3.8c-0.8,0-1.2-0.4-1.3-1.2l-2.9-9.4
			h-12.8l-2.8,9.4c-0.2,0.7-0.5,1.2-1.3,1.2h-3.5c-0.8,0-1.1-0.4-0.9-1.2l11.8-39c0.2-0.8,0.7-1.2,1.5-1.2H683.3z M682.9,15
			c-0.7-2.2-1.6-8.2-1.6-8.9c-0.1,0.5-0.9,6.1-1.7,8.7l-3.5,11.2h10.2L682.9,15z"/>
		<path class="st1" d="M731.7,0.1c0.9,0,1.2,0.3,1.2,1.2v2.6c0,0.4-0.1,0.8-0.2,1l-17.4,31.5h17.5c0.8,0,1.2,0.2,1.2,1.1v2.8
			c0,0.9-0.4,1.2-1.2,1.2h-23.4c-0.9,0-1.2-0.3-1.2-1.2v-2.8c0-0.4,0.1-0.7,0.3-1l17.3-31.3h-15.4c-0.8,0-1.2-0.3-1.2-1.2V1.2
			c0-0.9,0.4-1.2,1.2-1.2H731.7z"/>
		<path class="st1" d="M657.5,40.3c0,0.9-0.3,1.2-1.1,1.2h-3.8c-0.9,0-1.2-0.3-1.2-1.2v-5c0-0.8,0.3-1.2,1.2-1.2h3.8
			c0.8,0,1.1,0.4,1.1,1.2V40.3z"/>
	</g>
	<path class="st1" d="M289,49.8c-0.9-2.3-2.3-5.4-4.1-9.5c-1.8-4.1-3.1-7-3.9-8.8c-0.4-0.9-0.5-2-0.5-3.3c0-0.5,0-0.9,0.1-1.1
		l4.6-25.6c0.2-0.9,0.9-1.4,2.1-1.4h10.9c0.9,0,1.3,0.5,1.3,1.6c0,0.4,0,0.7-0.1,0.9l-9.2,47.1c-0.1,0.5-0.3,0.8-0.5,0.8
		C289.4,50.5,289.2,50.3,289,49.8z"/>
	<g>
		<path class="st0" d="M267.4,76.5c-0.5,0-0.6-0.2-0.6-0.6V62.5c0-0.5,0.2-0.6,0.6-0.6h4.1c4.1,0,5.5,1.5,5.5,3.4v1.2
			c0,1-0.5,1.8-1.5,2.4c1.3,0.5,2.2,1.4,2.2,2.6V73c0,1.9-1.4,3.5-5.5,3.5H267.4z M270.3,64.7v3.1h1.1c1.1,0,2-0.4,2-1.4v-0.6
			c0-1-0.9-1.1-2-1.1H270.3z M270.3,70.4v3.3h1.8c1.1,0,2-0.4,2-1.4v-0.7c0-0.8-0.9-1.3-2-1.3H270.3z"/>
		<path class="st0" d="M283.7,66.8c0.2,0.5,0.3,1.2,0.4,1.3c0-0.1,0.2-0.9,0.4-1.3l1.8-4.3c0.2-0.4,0.3-0.6,0.8-0.6h2.3
			c0.5,0,0.7,0.2,0.5,0.6l-4,8.6v4.8c0,0.5-0.2,0.6-0.6,0.6h-2.3c-0.5,0-0.6-0.2-0.6-0.6v-4.4l-4-9c-0.2-0.4,0-0.6,0.5-0.6h2.6
			c0.5,0,0.6,0.3,0.8,0.6L283.7,66.8z"/>
	</g>
	<g>
		<path class="st1" d="M267.5,27c-0.2-0.6-0.5-1.1-0.9-1.4c-0.4-0.4-0.9-0.5-1.7-0.5h-10.8c-1.5,0-2.6,0.7-3.3,2
			c-4.9,13.7-7.7,21.4-8.2,23c-0.4,0.9-0.6,1.4-0.8,1.4c-0.2,0-0.4-0.5-0.7-1.5c-0.9-5.8-2.3-14.1-3.9-24.9
			c-1.7-10.8-2.9-18.6-3.6-23.4c-0.1-0.6-0.4-1-0.7-1.2c-0.3-0.2-0.8-0.3-1.4-0.3h-11c-0.4,0-0.8,0.3-1,0.8
			c-0.2,0.5-0.3,1.1-0.1,1.7l13.1,72.5c0.2,0.9,0.9,1.4,2,1.4h11.8c0.6,0,1-0.1,1.4-0.3c0.3-0.2,0.6-0.6,0.7-1.1c1-3,2.7-7.9,5-14.7
			c2.3-6.8,4-12.1,5.2-15.9c0.1-0.4,0.2-0.5,0.4-0.5c0.2,0,0.3,0.2,0.5,0.5l5.4,15.3c0.3,0.9,1.5,0.9,1.9,0.1l6-13.9
			c0.6-1.4,0.6-2.9,0.1-4.2C271.2,37.2,268.5,29.7,267.5,27z"/>
	</g>
</g>
</svg>
